<svg width="37" height="36" viewBox="0 0 37 36" fill="none" xmlns="http://www.w3.org/2000/svg">
<path d="M5 25.5L12.152 17.1561C12.7876 16.4145 13.1048 16.0438 13.482 15.91C13.813 15.7927 14.176 15.7952 14.5054 15.9172C14.8807 16.0561 15.1926 16.4312 15.8179 17.1815L19.8175 21.9811C20.401 22.6813 20.6922 23.0315 21.0471 23.1722C21.3588 23.2959 21.7042 23.3115 22.0259 23.2165C22.392 23.1085 22.7143 22.7862 23.3589 22.1417L24.1045 21.3961C24.7607 20.7398 25.0889 20.4118 25.4603 20.3046C25.7864 20.2104 26.1344 20.2297 26.4482 20.3593C26.8055 20.5069 27.096 20.8693 27.6758 21.594L32.0007 27.0001M32 10.7999V25.1999C32 26.8801 32.0003 27.7203 31.6733 28.362C31.3857 28.9265 30.9262 29.3854 30.3617 29.673C29.7199 30 28.8805 30 27.2003 30H9.80029C8.12014 30 7.27943 30 6.6377 29.673C6.07321 29.3854 5.6146 28.9265 5.32698 28.362C5 27.7203 5 26.8801 5 25.1999V10.7999C5 9.11977 5 8.2798 5.32698 7.63806C5.6146 7.07358 6.07321 6.6146 6.6377 6.32698C7.27943 6 8.12014 6 9.80029 6H27.2003C28.8805 6 29.7199 6 30.3617 6.32698C30.9262 6.6146 31.3857 7.07358 31.6733 7.63806C32.0003 8.2798 32 9.11977 32 10.7999ZM23 15C22.1716 15 21.5 14.3284 21.5 13.5C21.5 12.6716 22.1716 12 23 12C23.8284 12 24.5 12.6716 24.5 13.5C24.5 14.3284 23.8284 15 23 15Z" stroke="#2F80ED" stroke-width="1.5" stroke-linecap="round" stroke-linejoin="round"/>
</svg>
